<svg width="800" height="272" viewBox="0 0 800 272" fill="none" xmlns="http://www.w3.org/2000/svg">
<g clip-path="url(#clip0_9_7)">
<path d="M459 62.9999V62.9999C472.514 32.468 507.615 17.9212 538.764 29.9444L686.095 86.8122C736.979 106.453 787.979 58.4941 771.5 6.50001V6.50001" stroke="#0595F8" stroke-width="2" stroke-dasharray="2 4"/>
<path d="M788.858 20.985L787.236 19.7698C780.752 14.9116 775.363 8.7856 771.402 1.77166V1.77166V1.77166C769.743 7.37276 765.783 12.0542 760.482 14.6798L759 15.4138" stroke="#0595F8" stroke-width="2"/>
<path d="M406.149 85.2727H407.994V90.9403C407.994 91.5767 407.842 92.1335 407.538 92.6108C407.237 93.0881 406.815 93.4602 406.273 93.7273C405.73 93.9915 405.098 94.1236 404.376 94.1236C403.652 94.1236 403.018 93.9915 402.476 93.7273C401.933 93.4602 401.511 93.0881 401.21 92.6108C400.909 92.1335 400.759 91.5767 400.759 90.9403V85.2727H402.604V90.7827C402.604 91.1151 402.676 91.4105 402.821 91.669C402.969 91.9276 403.176 92.1307 403.443 92.2784C403.71 92.4261 404.021 92.5 404.376 92.5C404.734 92.5 405.045 92.4261 405.31 92.2784C405.577 92.1307 405.783 91.9276 405.928 91.669C406.075 91.4105 406.149 91.1151 406.149 90.7827V85.2727ZM409.478 96.4545V87.4545H411.268V88.554H411.349C411.429 88.3778 411.544 88.1989 411.694 88.017C411.848 87.8324 412.047 87.679 412.291 87.5568C412.538 87.4318 412.845 87.3693 413.211 87.3693C413.689 87.3693 414.129 87.4943 414.532 87.7443C414.936 87.9915 415.258 88.3651 415.5 88.8651C415.741 89.3622 415.862 89.9858 415.862 90.7358C415.862 91.4659 415.744 92.0824 415.508 92.5852C415.275 93.0852 414.957 93.4645 414.554 93.723C414.153 93.9787 413.704 94.1065 413.207 94.1065C412.855 94.1065 412.555 94.0483 412.308 93.9318C412.064 93.8153 411.863 93.669 411.707 93.4929C411.551 93.3139 411.431 93.1335 411.349 92.9517H411.294V96.4545H409.478ZM411.255 90.7273C411.255 91.1165 411.309 91.456 411.417 91.7457C411.525 92.0355 411.681 92.2614 411.886 92.4233C412.091 92.5824 412.339 92.6619 412.632 92.6619C412.927 92.6619 413.177 92.581 413.382 92.419C413.586 92.2543 413.741 92.027 413.846 91.7372C413.954 91.4446 414.008 91.108 414.008 90.7273C414.008 90.3494 413.956 90.017 413.85 89.7301C413.745 89.4432 413.591 89.2187 413.386 89.0568C413.181 88.8949 412.93 88.8139 412.632 88.8139C412.336 88.8139 412.086 88.892 411.882 89.0483C411.68 89.2045 411.525 89.4261 411.417 89.7131C411.309 90 411.255 90.3381 411.255 90.7273ZM419.484 94.1065C418.987 94.1065 418.537 93.9787 418.133 93.723C417.733 93.4645 417.414 93.0852 417.179 92.5852C416.946 92.0824 416.829 91.4659 416.829 90.7358C416.829 89.9858 416.95 89.3622 417.191 88.8651C417.433 88.3651 417.754 87.9915 418.154 87.7443C418.558 87.4943 419 87.3693 419.48 87.3693C419.846 87.3693 420.152 87.4318 420.396 87.5568C420.643 87.679 420.842 87.8324 420.993 88.017C421.146 88.1989 421.262 88.3778 421.342 88.554H421.397V85.2727H423.208V94H421.419V92.9517H421.342C421.257 93.1335 421.136 93.3139 420.98 93.4929C420.826 93.669 420.626 93.8153 420.379 93.9318C420.135 94.0483 419.836 94.1065 419.484 94.1065ZM420.059 92.6619C420.352 92.6619 420.599 92.5824 420.801 92.4233C421.005 92.2614 421.162 92.0355 421.27 91.7457C421.38 91.456 421.436 91.1165 421.436 90.7273C421.436 90.3381 421.382 90 421.274 89.7131C421.166 89.4261 421.01 89.2045 420.805 89.0483C420.6 88.892 420.352 88.8139 420.059 88.8139C419.761 88.8139 419.51 88.8949 419.305 89.0568C419.1 89.2187 418.946 89.4432 418.841 89.7301C418.735 90.017 418.683 90.3494 418.683 90.7273C418.683 91.108 418.735 91.4446 418.841 91.7372C418.949 92.027 419.103 92.2543 419.305 92.419C419.51 92.581 419.761 92.6619 420.059 92.6619ZM426.567 94.1236C426.15 94.1236 425.778 94.0511 425.451 93.9062C425.124 93.7585 424.866 93.5412 424.675 93.2543C424.488 92.9645 424.394 92.6037 424.394 92.1719C424.394 91.8082 424.461 91.5028 424.594 91.2557C424.728 91.0085 424.91 90.8097 425.14 90.6591C425.37 90.5085 425.631 90.3949 425.924 90.3182C426.219 90.2415 426.529 90.1875 426.853 90.1562C427.234 90.1165 427.54 90.0795 427.773 90.0455C428.006 90.0085 428.175 89.9545 428.281 89.8835C428.386 89.8125 428.438 89.7074 428.438 89.5682V89.5426C428.438 89.2727 428.353 89.0639 428.183 88.9162C428.015 88.7685 427.776 88.6946 427.467 88.6946C427.14 88.6946 426.88 88.767 426.687 88.9119C426.494 89.054 426.366 89.233 426.303 89.4489L424.624 89.3125C424.71 88.9148 424.877 88.571 425.127 88.2812C425.377 87.9886 425.7 87.7642 426.094 87.608C426.492 87.4489 426.952 87.3693 427.475 87.3693C427.839 87.3693 428.187 87.4119 428.519 87.4972C428.854 87.5824 429.151 87.7145 429.41 87.8935C429.671 88.0724 429.877 88.3026 430.028 88.5838C430.178 88.8622 430.254 89.196 430.254 89.5852V94H428.532V93.0923H428.481C428.376 93.2969 428.235 93.4773 428.059 93.6335C427.883 93.7869 427.671 93.9077 427.424 93.9957C427.177 94.081 426.891 94.1236 426.567 94.1236ZM427.087 92.8707C427.354 92.8707 427.59 92.8182 427.795 92.7131C427.999 92.6051 428.16 92.4602 428.276 92.2784C428.393 92.0966 428.451 91.8906 428.451 91.6605V90.9659C428.394 91.0028 428.316 91.0369 428.217 91.0682C428.12 91.0966 428.011 91.1236 427.888 91.1491C427.766 91.1719 427.644 91.1932 427.522 91.2131C427.4 91.2301 427.289 91.2457 427.19 91.2599C426.977 91.2912 426.79 91.3409 426.631 91.4091C426.472 91.4773 426.349 91.5696 426.261 91.6861C426.173 91.7997 426.129 91.9418 426.129 92.1122C426.129 92.3594 426.218 92.5483 426.397 92.679C426.579 92.8068 426.809 92.8707 427.087 92.8707ZM435.143 87.4545V88.8182H431.202V87.4545H435.143ZM432.097 85.8864H433.912V91.9886C433.912 92.1562 433.938 92.2869 433.989 92.3807C434.04 92.4716 434.111 92.5355 434.202 92.5724C434.295 92.6094 434.403 92.6278 434.526 92.6278C434.611 92.6278 434.696 92.6207 434.781 92.6065C434.866 92.5895 434.932 92.5767 434.977 92.5682L435.263 93.919C435.172 93.9474 435.044 93.9801 434.879 94.017C434.714 94.0568 434.514 94.081 434.278 94.0895C433.841 94.1065 433.457 94.0483 433.128 93.9148C432.801 93.7812 432.547 93.5739 432.365 93.2926C432.183 93.0114 432.094 92.6562 432.097 92.2273V85.8864ZM439.239 94.1278C438.565 94.1278 437.986 93.9915 437.5 93.7188C437.017 93.4432 436.645 93.054 436.384 92.5511C436.122 92.0455 435.991 91.4474 435.991 90.7571C435.991 90.0838 436.122 89.4929 436.384 88.9844C436.645 88.4759 437.013 88.0795 437.487 87.7955C437.964 87.5114 438.524 87.3693 439.166 87.3693C439.598 87.3693 440 87.4389 440.372 87.5781C440.747 87.7145 441.074 87.9205 441.352 88.196C441.634 88.4716 441.852 88.8182 442.009 89.2358C442.165 89.6506 442.243 90.1364 442.243 90.6932V91.1918H436.716V90.0668H440.534C440.534 89.8054 440.477 89.5739 440.364 89.3722C440.25 89.1705 440.092 89.0128 439.891 88.8991C439.692 88.7827 439.46 88.7244 439.196 88.7244C438.92 88.7244 438.676 88.7884 438.463 88.9162C438.253 89.0412 438.088 89.2102 437.969 89.4233C437.849 89.6335 437.788 89.8679 437.786 90.1264V91.196C437.786 91.5199 437.845 91.7997 437.964 92.0355C438.087 92.2713 438.259 92.4531 438.48 92.581C438.702 92.7088 438.964 92.7727 439.268 92.7727C439.47 92.7727 439.655 92.7443 439.822 92.6875C439.99 92.6307 440.134 92.5455 440.253 92.4318C440.372 92.3182 440.463 92.179 440.526 92.0142L442.205 92.125C442.119 92.5284 441.945 92.8807 441.68 93.1818C441.419 93.4801 441.081 93.7131 440.666 93.8807C440.254 94.0455 439.778 94.1278 439.239 94.1278ZM447.326 96.4545C447.096 96.4545 446.88 96.4361 446.678 96.3991C446.479 96.3651 446.314 96.321 446.184 96.267L446.593 94.9119C446.806 94.9773 446.998 95.0128 447.168 95.0185C447.341 95.0241 447.49 94.9844 447.615 94.8991C447.743 94.8139 447.847 94.669 447.926 94.4645L448.033 94.1875L445.685 87.4545H447.594L448.949 92.2614H449.017L450.385 87.4545H452.307L449.763 94.7074C449.641 95.0597 449.475 95.3665 449.265 95.6278C449.057 95.892 448.794 96.0952 448.476 96.2372C448.158 96.3821 447.775 96.4545 447.326 96.4545ZM455.983 94.1278C455.321 94.1278 454.748 93.9872 454.265 93.706C453.785 93.4219 453.414 93.027 453.153 92.5213C452.892 92.0128 452.761 91.4233 452.761 90.7528C452.761 90.0767 452.892 89.4858 453.153 88.9801C453.414 88.4716 453.785 88.0767 454.265 87.7955C454.748 87.5114 455.321 87.3693 455.983 87.3693C456.645 87.3693 457.216 87.5114 457.696 87.7955C458.179 88.0767 458.551 88.4716 458.812 88.9801C459.074 89.4858 459.204 90.0767 459.204 90.7528C459.204 91.4233 459.074 92.0128 458.812 92.5213C458.551 93.027 458.179 93.4219 457.696 93.706C457.216 93.9872 456.645 94.1278 455.983 94.1278ZM455.991 92.7216C456.292 92.7216 456.544 92.6364 456.745 92.4659C456.947 92.2926 457.099 92.0568 457.201 91.7585C457.306 91.4602 457.359 91.1207 457.359 90.7401C457.359 90.3594 457.306 90.0199 457.201 89.7216C457.099 89.4233 456.947 89.1875 456.745 89.0142C456.544 88.8409 456.292 88.7543 455.991 88.7543C455.687 88.7543 455.431 88.8409 455.224 89.0142C455.02 89.1875 454.865 89.4233 454.76 89.7216C454.657 90.0199 454.606 90.3594 454.606 90.7401C454.606 91.1207 454.657 91.4602 454.76 91.7585C454.865 92.0568 455.02 92.2926 455.224 92.4659C455.431 92.6364 455.687 92.7216 455.991 92.7216ZM464.582 91.2131V87.4545H466.397V94H464.654V92.8111H464.586C464.439 93.1946 464.193 93.5028 463.849 93.7358C463.508 93.9687 463.092 94.0852 462.6 94.0852C462.163 94.0852 461.778 93.9858 461.446 93.7869C461.113 93.5881 460.853 93.3054 460.666 92.9389C460.481 92.5724 460.387 92.1335 460.385 91.6222V87.4545H462.2V91.2983C462.203 91.6847 462.306 91.9901 462.511 92.2145C462.716 92.4389 462.99 92.5511 463.333 92.5511C463.552 92.5511 463.757 92.5014 463.947 92.402C464.137 92.2997 464.291 92.1491 464.407 91.9503C464.527 91.7514 464.585 91.5057 464.582 91.2131ZM467.849 94V87.4545H469.609V88.5966H469.678C469.797 88.1903 469.997 87.8835 470.278 87.6761C470.56 87.4659 470.884 87.3608 471.25 87.3608C471.341 87.3608 471.439 87.3665 471.544 87.3778C471.649 87.3892 471.741 87.4048 471.821 87.4247V89.0355C471.736 89.0099 471.618 88.9872 471.467 88.9673C471.317 88.9474 471.179 88.9375 471.054 88.9375C470.787 88.9375 470.548 88.9957 470.338 89.1122C470.131 89.2259 469.966 89.3849 469.844 89.5895C469.724 89.794 469.665 90.0298 469.665 90.2969V94H467.849ZM475.537 96.4545V87.4545H477.327V88.554H477.408C477.487 88.3778 477.602 88.1989 477.753 88.017C477.906 87.8324 478.105 87.679 478.349 87.5568C478.597 87.4318 478.903 87.3693 479.27 87.3693C479.747 87.3693 480.188 87.4943 480.591 87.7443C480.994 87.9915 481.317 88.3651 481.558 88.8651C481.8 89.3622 481.92 89.9858 481.92 90.7358C481.92 91.4659 481.803 92.0824 481.567 92.5852C481.334 93.0852 481.016 93.4645 480.612 93.723C480.212 93.9787 479.763 94.1065 479.266 94.1065C478.913 94.1065 478.614 94.0483 478.366 93.9318C478.122 93.8153 477.922 93.669 477.766 93.4929C477.609 93.3139 477.49 93.1335 477.408 92.9517H477.352V96.4545H475.537ZM477.314 90.7273C477.314 91.1165 477.368 91.456 477.476 91.7457C477.584 92.0355 477.74 92.2614 477.945 92.4233C478.149 92.5824 478.398 92.6619 478.69 92.6619C478.986 92.6619 479.236 92.581 479.44 92.419C479.645 92.2543 479.8 92.027 479.905 91.7372C480.013 91.4446 480.067 91.108 480.067 90.7273C480.067 90.3494 480.014 90.017 479.909 89.7301C479.804 89.4432 479.649 89.2187 479.445 89.0568C479.24 88.8949 478.989 88.8139 478.69 88.8139C478.395 88.8139 478.145 88.892 477.94 89.0483C477.739 89.2045 477.584 89.4261 477.476 89.7131C477.368 90 477.314 90.3381 477.314 90.7273ZM483.131 94V87.4545H484.891V88.5966H484.959C485.078 88.1903 485.278 87.8835 485.56 87.6761C485.841 87.4659 486.165 87.3608 486.531 87.3608C486.622 87.3608 486.72 87.3665 486.825 87.3778C486.93 87.3892 487.023 87.4048 487.102 87.4247V89.0355C487.017 89.0099 486.899 88.9872 486.749 88.9673C486.598 88.9474 486.46 88.9375 486.335 88.9375C486.068 88.9375 485.83 88.9957 485.619 89.1122C485.412 89.2259 485.247 89.3849 485.125 89.5895C485.006 89.794 484.946 90.0298 484.946 90.2969V94H483.131ZM490.694 94.1278C490.032 94.1278 489.459 93.9872 488.976 93.706C488.496 93.4219 488.125 93.027 487.864 92.5213C487.603 92.0128 487.472 91.4233 487.472 90.7528C487.472 90.0767 487.603 89.4858 487.864 88.9801C488.125 88.4716 488.496 88.0767 488.976 87.7955C489.459 87.5114 490.032 87.3693 490.694 87.3693C491.355 87.3693 491.926 87.5114 492.407 87.7955C492.89 88.0767 493.262 88.4716 493.523 88.9801C493.784 89.4858 493.915 90.0767 493.915 90.7528C493.915 91.4233 493.784 92.0128 493.523 92.5213C493.262 93.027 492.89 93.4219 492.407 93.706C491.926 93.9872 491.355 94.1278 490.694 94.1278ZM490.702 92.7216C491.003 92.7216 491.255 92.6364 491.456 92.4659C491.658 92.2926 491.81 92.0568 491.912 91.7585C492.017 91.4602 492.07 91.1207 492.07 90.7401C492.07 90.3594 492.017 90.0199 491.912 89.7216C491.81 89.4233 491.658 89.1875 491.456 89.0142C491.255 88.8409 491.003 88.7543 490.702 88.7543C490.398 88.7543 490.142 88.8409 489.935 89.0142C489.73 89.1875 489.576 89.4233 489.471 89.7216C489.368 90.0199 489.317 90.3594 489.317 90.7401C489.317 91.1207 489.368 91.4602 489.471 91.7585C489.576 92.0568 489.73 92.2926 489.935 92.4659C490.142 92.6364 490.398 92.7216 490.702 92.7216ZM498.615 87.4545V88.8182H494.576V87.4545H498.615ZM495.5 94V86.9815C495.5 86.5071 495.593 86.1136 495.777 85.8011C495.965 85.4886 496.221 85.2543 496.544 85.098C496.868 84.9418 497.236 84.8636 497.648 84.8636C497.926 84.8636 498.181 84.8849 498.411 84.9276C498.644 84.9702 498.817 85.0085 498.931 85.0426L498.607 86.4062C498.536 86.3835 498.448 86.3622 498.343 86.3423C498.24 86.3224 498.135 86.3125 498.027 86.3125C497.76 86.3125 497.574 86.375 497.469 86.5C497.364 86.6222 497.311 86.794 497.311 87.0156V94H495.5ZM499.724 94V87.4545H501.54V94H499.724ZM500.636 86.6108C500.366 86.6108 500.135 86.5213 499.942 86.3423C499.751 86.1605 499.656 85.9432 499.656 85.6903C499.656 85.4403 499.751 85.2259 499.942 85.0469C500.135 84.8651 500.366 84.7741 500.636 84.7741C500.906 84.7741 501.136 84.8651 501.327 85.0469C501.52 85.2259 501.616 85.4403 501.616 85.6903C501.616 85.9432 501.52 86.1605 501.327 86.3423C501.136 86.5213 500.906 86.6108 500.636 86.6108ZM504.809 85.2727V94H502.994V85.2727H504.809ZM509.246 94.1278C508.573 94.1278 507.994 93.9915 507.508 93.7188C507.025 93.4432 506.653 93.054 506.391 92.5511C506.13 92.0455 505.999 91.4474 505.999 90.7571C505.999 90.0838 506.13 89.4929 506.391 88.9844C506.653 88.4759 507.021 88.0795 507.495 87.7955C507.972 87.5114 508.532 87.3693 509.174 87.3693C509.606 87.3693 510.008 87.4389 510.38 87.5781C510.755 87.7145 511.082 87.9205 511.36 88.196C511.641 88.4716 511.86 88.8182 512.016 89.2358C512.173 89.6506 512.251 90.1364 512.251 90.6932V91.1918H506.724V90.0668H510.542C510.542 89.8054 510.485 89.5739 510.371 89.3722C510.258 89.1705 510.1 89.0128 509.898 88.8991C509.7 88.7827 509.468 88.7244 509.204 88.7244C508.928 88.7244 508.684 88.7884 508.471 88.9162C508.261 89.0412 508.096 89.2102 507.977 89.4233C507.857 89.6335 507.796 89.8679 507.793 90.1264V91.196C507.793 91.5199 507.853 91.7997 507.972 92.0355C508.094 92.2713 508.266 92.4531 508.488 92.581C508.71 92.7088 508.972 92.7727 509.276 92.7727C509.478 92.7727 509.663 92.7443 509.83 92.6875C509.998 92.6307 510.141 92.5455 510.261 92.4318C510.38 92.3182 510.471 92.179 510.533 92.0142L512.212 92.125C512.127 92.5284 511.952 92.8807 511.688 93.1818C511.427 93.4801 511.089 93.7131 510.674 93.8807C510.262 94.0455 509.786 94.1278 509.246 94.1278ZM518.079 94.1236C517.662 94.1236 517.289 94.0511 516.963 93.9062C516.636 93.7585 516.377 93.5412 516.187 93.2543C516 92.9645 515.906 92.6037 515.906 92.1719C515.906 91.8082 515.973 91.5028 516.106 91.2557C516.24 91.0085 516.422 90.8097 516.652 90.6591C516.882 90.5085 517.143 90.3949 517.436 90.3182C517.731 90.2415 518.041 90.1875 518.365 90.1562C518.745 90.1165 519.052 90.0795 519.285 90.0455C519.518 90.0085 519.687 89.9545 519.792 89.8835C519.897 89.8125 519.95 89.7074 519.95 89.5682V89.5426C519.95 89.2727 519.865 89.0639 519.694 88.9162C519.527 88.7685 519.288 88.6946 518.978 88.6946C518.652 88.6946 518.392 88.767 518.199 88.9119C518.005 89.054 517.877 89.233 517.815 89.4489L516.136 89.3125C516.221 88.9148 516.389 88.571 516.639 88.2812C516.889 87.9886 517.211 87.7642 517.606 87.608C518.004 87.4489 518.464 87.3693 518.987 87.3693C519.35 87.3693 519.699 87.4119 520.031 87.4972C520.366 87.5824 520.663 87.7145 520.922 87.8935C521.183 88.0724 521.389 88.3026 521.539 88.5838C521.69 88.8622 521.765 89.196 521.765 89.5852V94H520.044V93.0923H519.993C519.887 93.2969 519.747 93.4773 519.571 93.6335C519.395 93.7869 519.183 93.9077 518.936 93.9957C518.689 94.081 518.403 94.1236 518.079 94.1236ZM518.599 92.8707C518.866 92.8707 519.102 92.8182 519.306 92.7131C519.511 92.6051 519.672 92.4602 519.788 92.2784C519.904 92.0966 519.963 91.8906 519.963 91.6605V90.9659C519.906 91.0028 519.828 91.0369 519.728 91.0682C519.632 91.0966 519.522 91.1236 519.4 91.1491C519.278 91.1719 519.156 91.1932 519.034 91.2131C518.912 91.2301 518.801 91.2457 518.701 91.2599C518.488 91.2912 518.302 91.3409 518.143 91.4091C517.984 91.4773 517.86 91.5696 517.772 91.6861C517.684 91.7997 517.64 91.9418 517.64 92.1122C517.64 92.3594 517.73 92.5483 517.909 92.679C518.091 92.8068 518.321 92.8707 518.599 92.8707ZM524.989 90.2159V94H523.174V87.4545H524.904V88.6094H524.98C525.125 88.2287 525.368 87.9276 525.709 87.706C526.05 87.4815 526.463 87.3693 526.949 87.3693C527.404 87.3693 527.8 87.4688 528.138 87.6676C528.476 87.8665 528.739 88.1506 528.926 88.5199C529.114 88.8864 529.208 89.3239 529.208 89.8324V94H527.392V90.1562C527.395 89.7557 527.293 89.4432 527.086 89.2188C526.878 88.9915 526.593 88.8778 526.229 88.8778C525.985 88.8778 525.769 88.9304 525.581 89.0355C525.397 89.1406 525.252 89.294 525.147 89.4957C525.044 89.6946 524.992 89.9347 524.989 90.2159ZM531.525 96.4545C531.295 96.4545 531.079 96.4361 530.877 96.3991C530.678 96.3651 530.513 96.321 530.383 96.267L530.792 94.9119C531.005 94.9773 531.197 95.0128 531.367 95.0185C531.54 95.0241 531.69 94.9844 531.815 94.8991C531.942 94.8139 532.046 94.669 532.126 94.4645L532.232 94.1875L529.884 87.4545H531.793L533.148 92.2614H533.217L534.585 87.4545H536.506L533.962 94.7074C533.84 95.0597 533.674 95.3665 533.464 95.6278C533.256 95.892 532.994 96.0952 532.675 96.2372C532.357 96.3821 531.974 96.4545 531.525 96.4545ZM543.694 87.4545V88.8182H539.752V87.4545H543.694ZM540.647 85.8864H542.463V91.9886C542.463 92.1562 542.488 92.2869 542.539 92.3807C542.591 92.4716 542.662 92.5355 542.752 92.5724C542.846 92.6094 542.954 92.6278 543.076 92.6278C543.162 92.6278 543.247 92.6207 543.332 92.6065C543.417 92.5895 543.483 92.5767 543.528 92.5682L543.814 93.919C543.723 93.9474 543.595 93.9801 543.43 94.017C543.265 94.0568 543.065 94.081 542.829 94.0895C542.392 94.1065 542.008 94.0483 541.679 93.9148C541.352 93.7812 541.098 93.5739 540.916 93.2926C540.734 93.0114 540.645 92.6562 540.647 92.2273V85.8864ZM544.877 94V87.4545H546.692V94H544.877ZM545.789 86.6108C545.519 86.6108 545.287 86.5213 545.094 86.3423C544.904 86.1605 544.809 85.9432 544.809 85.6903C544.809 85.4403 544.904 85.2259 545.094 85.0469C545.287 84.8651 545.519 84.7741 545.789 84.7741C546.059 84.7741 546.289 84.8651 546.479 85.0469C546.672 85.2259 546.769 85.4403 546.769 85.6903C546.769 85.9432 546.672 86.1605 546.479 86.3423C546.289 86.5213 546.059 86.6108 545.789 86.6108ZM548.146 94V87.4545H549.876V88.6094H549.953C550.089 88.2259 550.317 87.9233 550.635 87.7017C550.953 87.4801 551.334 87.3693 551.777 87.3693C552.226 87.3693 552.608 87.4815 552.923 87.706C553.239 87.9276 553.449 88.2287 553.554 88.6094H553.622C553.756 88.2344 553.997 87.9347 554.347 87.7102C554.699 87.483 555.115 87.3693 555.595 87.3693C556.206 87.3693 556.702 87.5639 557.082 87.9531C557.466 88.3395 557.658 88.8878 557.658 89.598V94H555.847V89.956C555.847 89.5923 555.75 89.3196 555.557 89.1378C555.364 88.956 555.122 88.8651 554.832 88.8651C554.503 88.8651 554.246 88.9702 554.061 89.1804C553.876 89.3878 553.784 89.6619 553.784 90.0028V94H552.024V89.9176C552.024 89.5966 551.932 89.3409 551.747 89.1506C551.565 88.9602 551.325 88.8651 551.027 88.8651C550.825 88.8651 550.643 88.9162 550.482 89.0185C550.322 89.1179 550.196 89.2585 550.102 89.4403C550.009 89.6193 549.962 89.8295 549.962 90.071V94H548.146ZM562.075 94.1278C561.401 94.1278 560.822 93.9915 560.336 93.7188C559.853 93.4432 559.481 93.054 559.219 92.5511C558.958 92.0455 558.827 91.4474 558.827 90.7571C558.827 90.0838 558.958 89.4929 559.219 88.9844C559.481 88.4759 559.849 88.0795 560.323 87.7955C560.8 87.5114 561.36 87.3693 562.002 87.3693C562.434 87.3693 562.836 87.4389 563.208 87.5781C563.583 87.7145 563.91 87.9205 564.188 88.196C564.469 88.4716 564.688 88.8182 564.844 89.2358C565.001 89.6506 565.079 90.1364 565.079 90.6932V91.1918H559.552V90.0668H563.37C563.37 89.8054 563.313 89.5739 563.2 89.3722C563.086 89.1705 562.928 89.0128 562.727 88.8991C562.528 88.7827 562.296 88.7244 562.032 88.7244C561.756 88.7244 561.512 88.7884 561.299 88.9162C561.089 89.0412 560.924 89.2102 560.805 89.4233C560.685 89.6335 560.624 89.8679 560.621 90.1264V91.196C560.621 91.5199 560.681 91.7997 560.8 92.0355C560.923 92.2713 561.094 92.4531 561.316 92.581C561.538 92.7088 561.8 92.7727 562.104 92.7727C562.306 92.7727 562.491 92.7443 562.658 92.6875C562.826 92.6307 562.969 92.5455 563.089 92.4318C563.208 92.3182 563.299 92.179 563.362 92.0142L565.04 92.125C564.955 92.5284 564.781 92.8807 564.516 93.1818C564.255 93.4801 563.917 93.7131 563.502 93.8807C563.09 94.0455 562.614 94.1278 562.075 94.1278Z" fill="#0090F2"/>
</g>
<defs>
<clipPath id="clip0_9_7">
<rect width="800" height="272" fill="white"/>
</clipPath>
</defs>
</svg>
