<svg width="117" height="117" viewBox="0 0 117 117" fill="none" xmlns="http://www.w3.org/2000/svg">
<g clip-path="url(#clip0_324_986)">
<path d="M77.64 36.23C79.6 36.4 88.6 41.83 90.75 43.73C91.43 45.93 90.75 46.51 88.73 46.99C83.31 48.27 79.85 42.59 71.12 44.38C71.48 48.23 70.05 48.75 66.75 47.31C65.77 48.46 63.01 52.52 62.45 53.83C60.56 58.21 65.01 64.7 67.21 65.44C67.31 65.47 67.43 65.48 67.54 65.51C66.66 71.94 74.56 68.83 78.5 69.16C79.09 70.91 79.98 85.45 83.52 89.25C83.39 90.75 83.52 92.63 84.5 93.78C87.08 96.83 96.21 91.58 98.52 88.89C104.92 81.44 101.17 76.11 102.43 73.56C109.2 69.4 113.06 58.55 103.54 59.38C101.82 57.25 99.8 58.28 97.61 55.47C100.73 54.96 102.01 54.69 102.44 51.3C104.95 52.16 106.44 54.01 109.94 53.78C109.22 57.25 112.25 58.14 115.16 57.76C115.84 114.93 39.05 138.34 8.85997 85.15C13.93 85.4 9.37997 80.89 8.20997 72.92C7.65997 69.19 6.20997 57.87 11.21 59.06C11.3 59.14 11.31 59.31 11.41 59.39C14.81 62.34 16.3 63.89 20.74 66.56C18.64 75.13 21.21 74.81 26.15 80.12C26.45 80.44 27.82 80.76 28.5 82.86C30.27 88.99 26.78 100.34 34.3 103.01C42.65 105.97 39.2 97.31 39.19 95.58C39.14 89.08 50.08 84.5 50.28 75.04C50.37 70.58 46.61 71.91 44.41 71C39.68 69.05 39.3 67.87 36.26 65.59C35.17 64.78 34.43 63.32 33 62.85C31.85 62.33 27.65 63 25.17 62.2C20.31 60.63 17.1 55.6 18.19 53.85C19.36 51.97 23.35 53.46 24.51 52.64C24.6 52.58 24.68 52.5 24.75 52.41C28.56 56.58 26.13 56.96 26.14 57.27C26.14 57.44 28.75 59.09 28.91 59.06C29.83 58.88 31.86 49.97 38.2 42.92C41.43 39.33 47.43 38.07 48.31 32.49C48.9 28.75 45.83 23.34 41.79 25.61C41.7 25.45 40.9 24.79 40.09 23.52C40.02 23.41 39.96 23.3 39.89 23.19C39.43 22.48 39.6 21.33 39.04 20.58C36.82 17.57 34.67 21.01 29.39 20.97C28.34 18.15 32.29 16.14 35.42 14.38C47.78 7.42997 64.86 5.55997 78.46 9.48997C86.53 11.82 88.2 15.55 88.41 10.92C92.22 13.32 94.01 14.48 97.25 17.63L96.08 18.33C88.68 23.67 85.01 19.59 80.58 20.11C74.59 20.81 75.41 24.91 73.54 27.74C72.24 29.69 66.28 34.27 68.91 36.8C70.98 38.8 74.73 35.96 77.65 36.21L77.64 36.23Z" fill="#65C2FE"/>
<path d="M115.01 52.55C114.44 52.42 114 52.76 113.48 52.9C112.34 53.2 111.08 53.7 109.93 53.78C106.43 54.01 104.94 52.16 102.43 51.3C102.32 51.26 102.21 51.21 102.1 51.17C96.7899 49.43 95.1999 52.4 97.5999 55.47C99.7899 58.28 101.81 57.25 103.53 59.38C105.26 64.42 98.3399 67 96.6799 70.47C95.6999 73.19 97.7499 76.49 96.9399 78.95C95.4599 83.43 90.9699 87.66 86.4399 88.99C85.4199 83.58 84.5799 64.76 77.6399 67.21C74.2199 62.16 70.5099 66.24 67.5299 65.51C67.4199 65.48 67.3099 65.48 67.1999 65.44C67.6499 63.54 66.9399 60.44 67.1999 59.21C67.3599 58.45 72.3699 50.24 72.9099 49.92C73.5199 49.55 81.4699 48.44 82.0399 48.62C83.0899 48.94 83.7299 53.39 96.3899 51.23C96.0099 40.94 91.7599 44.22 90.7499 43.73C88.5999 41.83 79.5999 36.4 77.6399 36.23C76.4999 34.55 81.5499 26.17 82.3699 25.8C86.2499 24.7 92.0399 26.27 94.7599 25.8C95.6599 25.65 97.4899 24.28 98.0199 24.17C99.6399 23.82 101.3 24.81 102.81 23.84C108.69 31.33 112.8 39.93 114.48 49.27C114.76 50.34 114.89 51.44 115 52.55H115.01Z" fill="#FEE131"/>
<path d="M40.0801 23.51C40.8901 24.78 41.69 25.44 41.78 25.6C45.8 32.98 37.8101 33.44 33.43 38.25C30.93 41 26.07 48.65 24.74 52.4C24.66 52.48 24.59 52.57 24.5 52.63C23.34 53.44 19.35 51.96 18.18 53.84C17.08 55.59 20.3 60.62 25.16 62.19C25.73 68.59 23.74 62.58 20.73 66.56C16.29 63.89 14.81 62.34 11.4 59.39C11.31 59.31 11.3 59.14 11.2 59.06C10.69 58.61 9.98005 57.53 7.55005 55.67C9.85005 43.78 14.27 32.67 23.04 24.17L33.1501 25.8C36.2901 25.17 36.0601 23.49 39.9001 23.19C39.9701 23.3 40.03 23.41 40.1 23.52L40.0801 23.51Z" fill="#FEE131"/>
<path d="M115.01 52.5501C115.19 54.2801 115.12 56.0201 115.14 57.7501C112.23 58.1301 109.2 57.2401 109.92 53.7701C111.08 53.6901 112.34 53.1901 113.47 52.8901C113.99 52.7501 114.43 52.4101 115 52.5401L115.01 52.5501Z" fill="#65C2FE"/>
<path d="M44.3799 70.9899C42.8999 75.2099 46.8299 75.1299 50.2499 75.0299C50.0499 84.4899 39.1099 89.0699 39.1599 95.5699C39.1699 97.2999 42.6199 105.97 34.2699 103C34.4399 98.9099 35.0899 93.4799 34.2699 89.5299C33.8199 87.3699 31.4199 81.3899 28.4699 82.8499C27.7899 80.7499 26.4199 80.4299 26.1199 80.1099C25.5499 75.0099 26.1499 72.4899 27.4199 67.6899C33.3899 66.7399 36.3099 69.3599 36.2199 65.5699C39.2699 67.8499 39.6499 69.0299 44.3699 70.9799L44.3799 70.9899Z" fill="#FEE131"/>
<path d="M67.54 65.51C70.51 66.24 74.23 62.16 77.65 67.21C84.59 64.77 85.43 83.58 86.45 88.99C90.98 87.66 95.46 83.42 96.95 78.95C97.76 76.49 95.7 73.2 96.69 70.47C98.35 67 105.26 64.43 103.54 59.38C113.06 58.55 109.2 69.41 102.43 73.56C101.17 76.11 104.92 81.43 98.52 88.89C96.21 91.59 87.08 96.83 84.5 93.78C83.52 92.62 83.39 90.74 83.52 89.25C79.98 85.45 79.09 70.92 78.5 69.16C74.57 68.83 66.67 71.94 67.54 65.51Z" fill="white"/>
<path d="M24.49 52.63C24.58 52.57 24.66 52.49 24.73 52.4C26.07 48.65 30.92 40.99 33.42 38.25C37.79 33.44 45.79 32.98 41.77 25.6C45.81 23.33 48.88 28.74 48.29 32.48C47.41 38.07 41.41 39.33 38.18 42.91C31.84 49.96 29.81 58.87 28.89 59.05C28.73 59.08 26.12 57.42 26.12 57.26C26.12 56.95 28.54 56.57 24.73 52.4C24.65 52.48 24.58 52.57 24.49 52.63Z" fill="white"/>
<path d="M67.2101 65.44C65.0101 64.7 60.5601 58.21 62.4501 53.83C63.0101 52.52 65.7701 48.46 66.7501 47.31C70.0501 48.75 71.4701 48.23 71.1201 44.38C79.8501 42.59 83.3101 48.27 88.7301 46.99C90.7601 46.51 91.4301 45.93 90.7501 43.73C91.7601 44.22 96.0101 40.94 96.3901 51.23C83.7301 53.39 83.0901 48.94 82.0401 48.62C81.4701 48.45 73.5201 49.55 72.9101 49.92C72.3801 50.24 67.3701 58.45 67.2001 59.21C66.9401 60.44 67.6501 63.54 67.2001 65.44H67.2101Z" fill="white"/>
<path d="M36.23 65.5701C36.32 69.3601 33.39 66.7401 27.43 67.6901C26.15 72.4901 25.55 75.0101 26.13 80.1101C21.19 74.7901 18.62 75.1201 20.72 66.5501C23.73 62.5701 25.73 68.5801 25.15 62.1801C27.63 62.9801 31.83 62.3101 32.98 62.8301C34.41 63.3001 35.15 64.7501 36.24 65.5701H36.23Z" fill="white"/>
<path d="M34.28 103.01C26.76 100.34 30.25 88.99 28.48 82.86C31.43 81.4 33.84 87.38 34.28 89.54C35.1 93.48 34.45 98.91 34.28 103.01Z" fill="white"/>
<path d="M102.1 51.16C102.21 51.2 102.32 51.25 102.43 51.29C102.01 54.69 100.73 54.95 97.5999 55.46C95.1999 52.39 96.7899 49.41 102.1 51.16Z" fill="white"/>
<path d="M50.2499 75.03C46.8299 75.12 42.8999 75.21 44.3799 70.99C46.5799 71.9 50.3399 70.58 50.2499 75.03Z" fill="white"/>
<path d="M21.35 18.48C23.3 20.24 26.78 20.95 29.38 20.97C34.66 21.01 36.81 17.57 39.03 20.58C39.58 21.33 39.42 22.48 39.88 23.19C39.95 23.3 40.01 23.41 40.08 23.52C40.89 24.79 41.69 25.45 41.78 25.61C45.8 32.99 37.81 33.45 33.43 38.26C30.93 41.01 26.07 48.66 24.74 52.41C24.66 52.49 24.59 52.58 24.5 52.64C23.34 53.45 19.35 51.97 18.18 53.85C17.08 55.6 20.3 60.63 25.16 62.2C27.64 63 31.84 62.33 32.99 62.85C34.42 63.32 35.16 64.77 36.25 65.59C39.3 67.87 39.68 69.05 44.4 71C46.6 71.91 50.36 70.59 50.27 75.04C50.07 84.5 39.13 89.08 39.18 95.58C39.19 97.31 42.64 105.98 34.29 103.01C26.77 100.34 30.26 88.99 28.49 82.86C27.81 80.76 26.44 80.44 26.14 80.12C21.2 74.8 18.63 75.13 20.73 66.56C16.29 63.89 14.81 62.34 11.4 59.39C11.31 59.31 11.3 59.14 11.2 59.06C10.69 58.61 9.97999 57.53 7.54999 55.67C6.24999 54.67 4.97999 53.84 3.48999 53.19" stroke="#4783B7" stroke-width="3.59" stroke-linecap="round" stroke-linejoin="round"/>
<path d="M114.49 49.27C112.8 39.93 108.7 31.33 102.82 23.84C101.08 21.63 99.2699 19.6 97.2499 17.64C94.0099 14.49 92.2099 13.33 88.4099 10.93C88.2899 10.86 88.1999 10.74 88.0799 10.67C37.7099 -20.7 -18.1801 37.52 8.83992 85.14C39.0299 138.33 115.82 114.92 115.14 57.75C115.12 56.02 115.19 54.28 115.01 52.55C114.89 51.44 114.77 50.35 114.49 49.27Z" stroke="#4783B7" stroke-width="3.59" stroke-linecap="round" stroke-linejoin="round"/>
<path d="M96.0799 18.34C88.6799 23.68 85.0099 19.6 80.5799 20.12C74.5899 20.82 75.4099 24.92 73.5399 27.75C72.2399 29.7 66.2799 34.28 68.9099 36.81C70.9799 38.81 74.7299 35.97 77.6499 36.22C79.6099 36.39 88.6099 41.82 90.7599 43.72C91.4399 45.92 90.7599 46.5 88.7399 46.98C83.3199 48.26 79.8599 42.58 71.1299 44.37C70.2199 44.56 69.3099 44.56 68.5199 45.15C67.3699 46 67.1499 46.84 66.7599 47.3C65.7799 48.45 63.0199 52.51 62.4599 53.82C60.5699 58.2 65.0199 64.69 67.2199 65.43C67.3199 65.46 67.4399 65.47 67.5499 65.5C70.5199 66.23 74.2399 62.15 77.6599 67.2C78.0499 67.77 78.2899 68.5 78.5099 69.16C79.0999 70.91 79.9899 85.45 83.5299 89.25C84.5499 89.56 85.4899 89.27 86.4599 88.99C90.9899 87.66 95.4699 83.42 96.9599 78.95C97.7699 76.49 95.7099 73.2 96.6999 70.47C98.3599 67 105.27 64.43 103.55 59.38C101.83 57.25 99.8099 58.28 97.6199 55.47C95.2199 52.4 96.8099 49.42 102.12 51.17C102.23 51.21 102.34 51.26 102.45 51.3C104.96 52.16 106.45 54.01 109.95 53.78C111.11 53.7 112.37 53.2 113.5 52.9" stroke="#4783B7" stroke-width="3.59" stroke-linecap="round" stroke-linejoin="round"/>
</g>
<defs>
<clipPath id="clip0_324_986">
<rect width="116.94" height="116.76" fill="white"/>
</clipPath>
</defs>
</svg>
