<svg width="32" height="31" viewBox="0 0 32 31" fill="none" xmlns="http://www.w3.org/2000/svg">
<g clip-path="url(#clip0_232_363)">
<rect x="14.3333" y="27.1658" width="3.33333" height="3.273" rx="1.6365" fill="#0090F2"/>
<rect x="14.3333" y="22.2563" width="3.33333" height="3.273" rx="1.6365" fill="#0090F2"/>
<rect x="14.3333" y="11.1282" width="3.33333" height="9.81901" rx="1.66667" fill="#0090F2"/>
<path d="M9.48016 20.8092C8.84293 21.4315 7.8251 21.4301 7.18956 20.806V20.806C6.53613 20.1644 6.53613 19.1116 7.18956 18.47L14.5575 11.2354C15.3584 10.449 16.6416 10.449 17.4425 11.2354L24.8104 18.47C25.4639 19.1116 25.4639 20.1644 24.8104 20.806V20.806C24.1749 21.4301 23.1571 21.4315 22.5198 20.8092L16 14.4421L9.48016 20.8092ZM9.48016 10.9902C8.84293 11.6125 7.8251 11.6111 7.18956 10.987V10.987C6.53613 10.3454 6.53613 9.29258 7.18956 8.65097L14.5575 1.41634C15.3584 0.629969 16.6416 0.62997 17.4425 1.41635L24.8104 8.65097C25.4639 9.29258 25.4639 10.3454 24.8104 10.987V10.987C24.1749 11.6111 23.1571 11.6125 22.5198 10.9902L16 4.62311L9.48016 10.9902Z" fill="#0090F2"/>
<rect x="14.3333" y="11.4556" width="3.33333" height="3.273" rx="1.6365" fill="#0090F2"/>
</g>
<defs>
<clipPath id="clip0_232_363">
<rect width="32" height="31" fill="white"/>
</clipPath>
</defs>
</svg>
