<svg width="444" height="461" viewBox="0 0 444 461" fill="none" xmlns="http://www.w3.org/2000/svg">
<g clip-path="url(#clip0_41_49)">
<path d="M336.64 303.619L343.813 276.921L356.786 280.395L339.158 304.81C338.247 306.084 336.242 305.141 336.656 303.619H336.64Z" fill="#E2E2E2"/>
<path d="M274.94 343.931L281.982 317.398L294.971 320.839L277.508 345.138C276.564 346.445 274.526 345.486 274.924 343.931H274.94Z" fill="#E2E2E2"/>
<path d="M399.332 18.1626C404.356 18.1626 408.428 14.0967 408.428 9.08128C408.428 4.06583 404.356 0 399.332 0C394.309 0 390.237 4.06583 390.237 9.08128C390.237 14.0967 394.309 18.1626 399.332 18.1626Z" fill="#E2E2E2"/>
<path d="M310.727 26.2845C317.238 33.1823 317.122 42.7764 310.478 47.7058C303.835 52.6351 293.198 51.0306 286.687 44.1328C280.176 37.235 280.292 27.6409 286.935 22.7116C293.579 17.7822 304.216 19.3867 310.727 26.2845Z" fill="#E2E2E2"/>
<path d="M444 58.7224H335.297V80.2098L444 58.7224Z" fill="#E2E2E2"/>
<path d="M350.408 286.598L433.364 301.502C436.18 302.015 438.433 299.17 437.29 296.539L430.398 280.742H350.938C346.995 280.808 346.531 285.903 350.408 286.598Z" fill="#E2E2E2"/>
<path d="M290.448 327.34L366.197 340.953C368.401 341.35 370.422 339.663 370.422 337.43V319.797L290.962 320.872C287.019 320.938 286.555 326.628 290.432 327.323L290.448 327.34Z" fill="#E2E2E2"/>
<path d="M430.381 280.726L341.179 58.7224H284.301L417.027 280.726" fill="#E2E2E2"/>
<path d="M401.536 16.9219L427.134 58.9538H443.718L405.032 14.3414C403.259 12.373 400.161 14.6557 401.536 16.9219Z" fill="#E2E2E2"/>
<path d="M370.422 319.797V132.994H330.924L366.528 319.797H370.422Z" fill="#E2E2E2"/>
<path d="M284.301 58.7224H341.179L367.588 124.491H323.584L284.301 58.7224Z" fill="#E2E2E2"/>
<path d="M120.096 72.7163C125.119 72.7163 129.192 68.6505 129.192 63.6351C129.192 58.6196 125.119 54.5538 120.096 54.5538C115.072 54.5538 111 58.6196 111 63.6351C111 68.6505 115.072 72.7163 120.096 72.7163Z" fill="#E2E2E2"/>
<path d="M285.677 58.9537H128.463C124.072 58.9537 123.526 64.4124 127.85 65.0575L299.942 83.1705C304.266 83.7163 308.325 81.2847 309.236 77.6291C310.496 72.6005 308.358 67.3237 303.603 64.1808C298.55 60.8395 292.271 58.9537 285.677 58.9537Z" fill="#E2E2E2"/>
<path d="M0 404.593V459.259C70.6008 361.032 169.391 283.368 286.125 239.037C175.936 268 77.6303 326.123 0 404.593Z" fill="#E2E2E2"/>
</g>
<defs>
<clipPath id="clip0_41_49">
<rect width="444" height="461" fill="white"/>
</clipPath>
</defs>
</svg>
