<svg width="294" height="162" viewBox="0 0 588 325" fill="none" xmlns="http://www.w3.org/2000/svg">
<g clip-path="url(#clip0_87_1201)">
<path d="M0 226.7L32.55 194.15L44.91 206.51L0 226.7Z" fill="#0090F2"/>
<path d="M588 291.72L555.45 324.28L543.09 311.92L588 291.72Z" fill="#0090F2"/>
<path d="M127 150.13C132.28 150.13 136.56 145.85 136.56 140.57C136.56 135.29 132.28 131.01 127 131.01C121.72 131.01 117.44 135.29 117.44 140.57C117.44 145.85 121.72 150.13 127 150.13Z" fill="#0090F2"/>
<path d="M504.78 87.24C509.988 87.24 514.21 83.0181 514.21 77.81C514.21 72.602 509.988 68.38 504.78 68.38C499.572 68.38 495.35 72.602 495.35 77.81C495.35 83.0181 499.572 87.24 504.78 87.24Z" fill="#0090F2"/>
<path d="M376.25 25.56C380.54 34.84 391.32 39.88 400.33 36.82C409.34 33.76 413.17 23.75 408.89 14.46C407.71 11.9 406.03 9.67 404.04 7.84C390.95 7.83 379.04 9.74001 375.46 12.3C374.01 16.29 374.16 21.01 376.26 25.56H376.25Z" fill="#0090F2"/>
<path d="M385.18 0.830005C380.93 2.28 377.93 5.4 376.53 9.24C379.85 6.87 390.86 5.1 402.96 5.11C398.11 0.650005 391.21 -1.23 385.18 0.820005V0.830005Z" fill="#16D335"/>
<path d="M106.41 266.82L95.37 256.15L275.29 77.86L382.41 77.62L106.41 266.82Z" fill="#F9DB00"/>
<path d="M40.75 201.96L106.41 266.82L85.92 281.25L35.09 206.68C32.57 202.98 37.56 198.81 40.75 201.96Z" fill="#F9DB00"/>
<path d="M125.87 138.38L185.33 77.86L169.34 61.56L120.21 133.72C117.68 137.43 122.73 141.57 125.88 138.37L125.87 138.38Z" fill="#16D335"/>
<path d="M185.33 77.86H335.64L335.49 30.74L169.34 61.57L185.33 77.86Z" fill="#16D335"/>
<path d="M455.22 167.84L445.23 140.67L335.49 30.74L302.39 64.15L455.22 167.84Z" fill="#16D335"/>
<path d="M547.79 306.27L276.03 149.45L227.28 182.75L544.56 312.86C548.8 314.6 551.77 308.56 547.8 306.27H547.79Z" fill="#F9DB00"/>
<path d="M505.96 79.95L445.23 140.68L455.22 167.85L511.77 84.76C514.36 80.96 509.21 76.7 505.96 79.95Z" fill="#16D335"/>
<path d="M363.6 58.83L335.49 30.74L304.7 69.4C301.06 74.52 295.17 77.56 288.89 77.56H275.43L221.65 130.73H304.61L360.44 92.61C371.84 84.82 373.36 68.59 363.59 58.83H363.6Z" fill="#16D335"/>
<path d="M375.94 12.72C379.48 4.52 430.1 5.35 433.1 13.29C434.01 18.17 418.98 18.94 415.62 19.25C418.69 18.8 421.75 18.25 424.73 17.44C442.54 12.39 420.76 10.46 414.7 10.52C405.58 10.45 396.34 11.14 387.5 13.25C385.41 13.75 382.24 14.78 381.13 15.71C379.09 19.08 374.03 16.2 375.93 12.71L375.94 12.72Z" fill="#0090F2"/>
</g>
<defs>
</defs>
</svg>
