<svg width="171" height="552" viewBox="0 0 171 552" fill="none" xmlns="http://www.w3.org/2000/svg">
<g clip-path="url(#clip0_41_33)">
<path d="M156.617 165.214L123.7 254.563C121.438 260.652 114.633 263.772 108.506 261.524C101.644 259.011 98.6946 250.969 102.331 244.654L148.457 161.43C151.215 156.641 158.545 160.046 156.627 165.214H156.617Z" fill="#0090F2"/>
<path d="M112.791 321.457L124.712 252.657C125.37 248.864 122.431 245.393 118.556 245.393H45.6968L58.858 321.448H112.782L112.791 321.457Z" fill="#0090F2"/>
<path d="M0.677704 181.202L47.3002 261.23C50.5452 266.73 57.665 268.57 63.2005 265.336L63.6109 265.099C69.805 261.486 71.2461 253.207 66.6364 247.736L8.01705 176.063C4.46668 171.852 -2.12823 176.461 0.677704 181.202Z" fill="#0090F2"/>
<path d="M87.9289 228.134C84.6839 234.877 77.23 237.39 71.265 233.748C65.3 230.107 63.0954 221.695 66.3308 214.953C69.5757 208.21 77.0296 205.697 82.9946 209.339C88.9596 212.98 91.1643 221.392 87.9289 228.134Z" fill="#0090F2"/>
<path d="M131.984 121.763L145.565 168.087L150.748 169.481C154.861 170.591 158.383 166.371 156.531 162.559L135.973 120.217C134.8 117.903 131.268 119.278 131.984 121.772V121.763Z" fill="#0090F2"/>
<path d="M39.5313 138.576L10.4793 186.067L2.06152 181.828C-0.00953104 180.785 -0.543995 178.083 0.973502 176.338L36.0764 136.044C37.8229 134.11 40.8675 136.357 39.5217 138.576H39.5313Z" fill="#0090F2"/>
<path d="M36.9352 143.128C41.2522 143.128 44.7517 139.651 44.7517 135.361C44.7517 131.072 41.2522 127.595 36.9352 127.595C32.6182 127.595 29.1187 131.072 29.1187 135.361C29.1187 139.651 32.6182 143.128 36.9352 143.128Z" fill="#0090F2"/>
<path d="M129.283 122.113C133.6 122.113 137.1 118.636 137.1 114.347C137.1 110.057 133.6 106.58 129.283 106.58C124.966 106.58 121.467 110.057 121.467 114.347C121.467 118.636 124.966 122.113 129.283 122.113Z" fill="#0090F2"/>
<path d="M151.187 545.096L112.734 321.457H74.72L151.187 545.096Z" fill="#0090F2"/>
<path d="M20.4338 545.096L58.8867 321.457H96.9004L20.4338 545.096Z" fill="#0090F2"/>
<path d="M171 552L145.813 545.286L148.381 535.793L171 552Z" fill="#0090F2"/>
<path d="M0.601318 547.951L25.788 541.246L23.2206 531.744L0.601318 547.951Z" fill="#0090F2"/>
<path d="M33.4612 111.198L54.0858 91.322C49.3425 85.9071 46.7274 79.6673 46.2311 72.6024C45.7348 65.547 47.5768 59.0036 51.7476 52.9819C45.9162 45.8886 43.2057 37.8754 43.6256 28.9328C44.036 19.9998 47.5482 12.3469 54.1336 5.99329L55.2597 4.90274C58.7242 1.5647 62.7422 -0.0663877 67.3043 -6.25302e-06C71.8759 0.0663752 75.8366 1.82074 79.1961 5.2631L88.5111 14.8031L91.3361 12.0814C93.7603 9.74859 96.6617 8.60114 100.031 8.65804C103.4 8.71493 106.253 9.94773 108.592 12.3375L142.578 47.1403C144.916 49.5301 146.061 52.4129 146.004 55.7699C145.956 59.1269 144.725 61.9624 142.311 64.2857L139.486 67.0074L148.801 76.5473C152.16 79.9897 153.802 83.9726 153.735 88.515C153.668 93.0574 151.902 96.9928 148.438 100.331L147.312 101.421C140.717 107.775 132.919 111.028 123.919 111.161C114.919 111.303 106.941 108.373 99.9734 102.36C93.7889 106.324 87.1558 107.955 80.0646 107.244C72.9734 106.542 66.7794 103.745 61.4729 98.8705L40.8483 118.747L56.0614 134.328C57.0636 135.352 57.5503 136.604 57.5217 138.083C57.5026 139.562 56.9681 140.805 55.9374 141.8C54.9066 142.796 53.6468 143.28 52.1579 143.251C50.6691 143.223 49.4284 142.701 48.4262 141.677L10.6224 102.967C9.6203 101.943 9.13355 100.691 9.15264 99.2119C9.17173 97.7325 9.70619 96.4997 10.7369 95.504C11.7677 94.5083 13.0275 94.0246 14.5164 94.0436C16.0052 94.072 17.246 94.5936 18.2481 95.6178L33.4612 111.198ZM58.5715 43.6695L80.8854 22.1524L71.5705 12.6125C70.2916 11.3038 68.8218 10.6305 67.1516 10.6115C65.4814 10.5926 63.983 11.209 62.6659 12.4797L61.5397 13.5703C57.3976 17.5626 55.0498 22.418 54.4962 28.1268C53.9427 33.8356 55.3075 39.0133 58.5715 43.679V43.6695ZM65.1664 88.0598C70.1198 93.1332 76.1134 95.7221 83.1283 95.8074C90.1431 95.9023 96.2036 93.4841 101.31 88.5719L131.259 59.7054C132.576 58.4347 133.253 56.9743 133.272 55.3147C133.301 53.6552 132.671 52.1758 131.392 50.8577L104.535 23.3473C103.257 22.0386 101.787 21.3653 100.117 21.3464C98.4464 21.3179 96.9575 21.9438 95.6309 23.2145L65.6818 52.081C60.5853 57.0027 57.9798 62.9581 57.8843 69.9471C57.7794 76.9456 60.2131 82.9769 65.1664 88.0598ZM109.546 95.8833C114.137 99.2688 119.31 100.777 125.065 100.407C130.82 100.037 135.773 97.8463 139.915 93.8539L141.041 92.7634C142.358 91.4926 143.026 90.0228 143.055 88.3727C143.084 86.7132 142.454 85.2243 141.175 83.9157L131.86 74.3757L109.546 95.8928V95.8833Z" fill="#0090F2"/>
</g>
<defs>
<clipPath id="clip0_41_33">
<rect width="171" height="552" fill="white"/>
</clipPath>
</defs>
</svg>
