<svg width="676" height="702" viewBox="0 0 676 702" fill="none" xmlns="http://www.w3.org/2000/svg">
<g clip-path="url(#clip0_1_2)">
<path d="M675.9 337.95L337.95 0L0 337.95L234.75 572.7C232.96 580.39 232.01 588.4 232.01 596.63C232.01 654.59 279 701.58 336.96 701.58C394.92 701.58 441.91 654.59 441.91 596.63C441.91 588.97 441.08 581.51 439.53 574.32L675.9 337.95Z" fill="#E39B11"/>
<path d="M74.2592 339.274L55.3865 320.401L36.5139 339.274L55.3865 358.147L74.2592 339.274Z" fill="white"/>
<path d="M619.085 339.28L600.212 320.407L581.34 339.28L600.212 358.152L619.085 339.28Z" fill="white"/>
<path d="M354.186 52.2634L335.314 33.3907L316.441 52.2634L335.314 71.1361L354.186 52.2634Z" fill="white"/>
<path d="M360.1 642.47L335.32 667.4L310.41 642.47V607.25H360.1V642.47Z" fill="white"/>
<path d="M561.8 338.49C561.8 315.19 577.91 295.66 599.59 290.41L377.42 68.24C368.7 82.34 353.1 91.74 335.31 91.74C318.88 91.74 304.32 83.72 295.32 71.39L70.68 296.03C85.09 304.68 94.73 320.45 94.73 338.48C94.73 355.15 86.48 369.88 73.85 378.85L278.42 583.42C292.66 566.42 314.04 555.6 337.96 555.6C361.88 555.6 383.25 566.42 397.5 583.42L595.53 385.39C575.93 378.81 561.81 360.3 561.81 338.49H561.8Z" fill="#459D46"/>
</g>
<defs>
<clipPath id="clip0_1_2">
<rect width="675.9" height="701.58" fill="white"/>
</clipPath>
</defs>
</svg>
