<svg width="201" height="36" viewBox="0 0 201 36" fill="none" xmlns="http://www.w3.org/2000/svg">
<path d="M125.333 26.1008C125.333 28.6133 123.284 30.6579 120.762 30.6579H108.729V26.8863H121.551V16.2042H125.333V26.1008Z" fill="black"/>
<path d="M147.399 30.6546H131.581C129.06 30.6546 127.011 28.6129 127.011 26.0975V16.2009H130.796V26.883H143.617V16.2009H147.399V30.6517V30.6546Z" fill="black"/>
<path d="M178.505 30.6546H174.72V19.9724H165.681V30.6546H161.896V19.9724H152.857V30.6546H149.072V16.2038H173.929C176.45 16.2038 178.499 18.2455 178.499 20.7608V30.6575L178.505 30.6546Z" fill="black"/>
<path d="M200.571 26.1004C200.571 28.6129 198.522 30.6575 196.001 30.6575H183.968V36H180.183V16.2038H196.001C198.522 16.2038 200.571 18.2455 200.571 20.7608V26.1004ZM196.789 26.8859V19.9753H183.968V26.8859H196.789Z" fill="black"/>
<path d="M16.6063 30.6546H4.57036C2.04898 30.6546 0 28.6129 0 26.0975V16.2009H3.78497V26.883H16.6063V30.6546Z" fill="black"/>
<path d="M37.728 26.1004C37.728 28.6129 35.679 30.6575 33.1576 30.6575H21.9128C19.3915 30.6575 17.3425 28.6158 17.3425 26.1004V20.7608C17.3425 18.2484 19.3915 16.2038 21.9128 16.2038H33.1576C35.679 16.2038 37.728 18.2455 37.728 20.7608V26.1004ZM33.9459 26.8859V19.9753H21.1245V26.8859H33.9459Z" fill="black"/>
<path d="M59.7944 30.6546H56.0123V19.9724H43.191V30.6546H39.406V16.2038H55.224C57.7454 16.2038 59.7944 18.2455 59.7944 20.7608V30.6575V30.6546Z" fill="black"/>
<path d="M81.8637 31.4401C81.8637 33.9525 79.8147 35.9971 77.2905 35.9971H61.4724V32.2256H78.0787V30.6546H66.0457C63.5243 30.6546 61.4753 28.6129 61.4753 26.0975V20.7579C61.4753 18.2455 63.5243 16.2009 66.0457 16.2009H81.8637V31.4372V31.4401ZM78.0787 26.883V19.9724H65.2574V26.883H78.0787Z" fill="black"/>
<path d="M90.0712 26.6924V35.5062C101.452 19.6692 117.377 7.14744 136.195 0C118.432 4.66966 102.585 14.0408 90.0712 26.6924Z" fill="#0090F2"/>
</svg>
