<svg width="32" height="32" viewBox="0 0 32 32" fill="none" xmlns="http://www.w3.org/2000/svg">
<rect width="32" height="32" rx="16" fill="#0090F2"/>
<path d="M15.2059 25.4118V21.1176C14.1275 21.0588 13.1814 20.6863 12.3676 20C11.5539 19.3137 11.0392 18.4314 10.8235 17.3529C9.45098 17.2353 8.30392 16.6863 7.38235 15.7059C6.46078 14.7255 6 13.549 6 12.1765V11.9412C6 11.2206 6.24147 10.6188 6.72441 10.1359C7.20716 9.65314 7.80882 9.41176 8.52941 9.41176H10.5294V8.82353C10.5294 8.31863 10.7079 7.88843 11.065 7.53294C11.4221 7.17765 11.8514 7 12.3529 7H19.6471C20.1486 7 20.5779 7.17853 20.935 7.53559C21.2921 7.89265 21.4706 8.32196 21.4706 8.82353V9.41176H23.4706C24.1912 9.41176 24.7929 9.65314 25.2759 10.1359C25.7586 10.6188 26 11.2206 26 11.9412V12.1765C26 13.549 25.5392 14.7255 24.6176 15.7059C23.6961 16.6863 22.549 17.2353 21.1765 17.3529C20.9608 18.4314 20.4461 19.3137 19.6324 20C18.8186 20.6863 17.8725 21.0588 16.7941 21.1176V25.4118H20.0588C20.2735 25.4118 20.4595 25.4906 20.6168 25.6482C20.7742 25.8057 20.8529 25.992 20.8529 26.2071C20.8529 26.422 20.7742 26.6078 20.6168 26.7647C20.4595 26.9216 20.2735 27 20.0588 27H11.9412C11.7265 27 11.5404 26.9212 11.3829 26.7635C11.2257 26.6061 11.1471 26.4198 11.1471 26.2047C11.1471 25.9898 11.2257 25.8039 11.3829 25.6471C11.5404 25.4902 11.7265 25.4118 11.9412 25.4118H15.2059ZM10.5294 15.6471V11H8.52941C8.2549 11 8.02941 11.0882 7.85294 11.2647C7.67647 11.4412 7.58824 11.6667 7.58824 11.9412V12.1765C7.58824 13.0392 7.86765 13.799 8.42647 14.4559C8.98529 15.1127 9.68627 15.5098 10.5294 15.6471ZM16.0071 19.5882C17.071 19.5882 17.973 19.2165 18.7132 18.4729C19.4534 17.7296 19.8235 16.8269 19.8235 15.7647V9.52941C19.8235 9.2549 19.7353 9.02941 19.5588 8.85294C19.3824 8.67647 19.1569 8.58824 18.8824 8.58824H13.1176C12.8431 8.58824 12.6176 8.67647 12.4412 8.85294C12.2647 9.02941 12.1765 9.2549 12.1765 9.52941V15.7647C12.1765 16.8269 12.5489 17.7296 13.2938 18.4729C14.0385 19.2165 14.9429 19.5882 16.0071 19.5882ZM21.4706 15.6471C22.3137 15.5098 23.0147 15.1127 23.5735 14.4559C24.1324 13.799 24.4118 13.0392 24.4118 12.1765V11.9412C24.4118 11.6667 24.3235 11.4412 24.1471 11.2647C23.9706 11.0882 23.7451 11 23.4706 11H21.4706V15.6471Z" fill="white"/>
</svg>
