<svg width="59" height="36" viewBox="0 0 59 36" fill="none" xmlns="http://www.w3.org/2000/svg">
<g clip-path="url(#clip0_1_16)">
<path d="M0.512246 26.9076C2.5015 25.9044 4.72046 25.6718 6.27222 26.2955C7.63748 26.8443 9.08296 27.6122 10.6025 28.4792L10.5991 28.4853C10.5991 28.4853 4.81371 30.1378 2.31361 29.5485C2.31361 29.5485 -1.30969 27.8259 0.512931 26.9076H0.512246Z" fill="#0F245B"/>
<path d="M45.4922 28.4098C41.3148 27.4989 36.6382 25.7298 31.7484 23.3121C19.0059 17.0123 14.1428 20.442 14.1428 20.442L0.512207 26.9076C2.60706 26.139 4.72042 25.6718 6.27218 26.2954C12.4786 28.7893 20.3553 35.8314 29.2168 35.9973C38.0782 36.1632 45.4922 28.4098 45.4922 28.4098Z" fill="#2447B5"/>
<path d="M14.725 20.1467C15.1275 19.9748 19.6367 8.49637 22.1889 5.20489C25.0696 1.49067 29.6282 -0.158438 32.4095 0.0121367C33.8899 0.103155 37.0716 0.353286 40.2595 1.1084C48.0087 2.94427 57.0546 8.00487 58.5426 11.3557C59.8976 14.4071 57.8076 29.5883 57.8076 29.5883C57.8076 29.5883 52.9987 30.0467 45.4922 28.4098C41.3148 27.4989 36.6383 25.7298 31.7485 23.3121C21.3949 18.1935 16.2932 19.4772 14.725 20.146V20.1467Z" fill="#4B6CF9"/>
<path d="M45.4922 28.4098C45.4922 28.4098 47.5411 12.9542 47.4972 9.72545C47.4533 6.49667 43.7224 3.09933 40.2595 1.1084C48.0087 2.94427 57.0547 8.00487 58.5426 11.3557C59.8976 14.4071 57.8076 29.5883 57.8076 29.5883C57.8076 29.5883 52.9987 30.0467 45.4922 28.4098Z" fill="#4A65BC"/>
</g>
<defs>
<clipPath id="clip0_1_16">
<rect width="59" height="36" fill="white"/>
</clipPath>
</defs>
</svg>
