<svg width="676" height="702" viewBox="0 0 676 702" fill="none" xmlns="http://www.w3.org/2000/svg">
<g clip-path="url(#clip0_3_24)">
<path d="M291.651 65.8871C294.18 64.6609 297.001 64.3766 298.973 65.1389C300.709 65.8096 302.546 66.7482 304.478 67.8079L304.473 67.8153C304.473 67.8153 297.119 69.835 293.941 69.1148C293.941 69.1148 289.335 67.0094 291.652 65.8871H291.651Z" fill="#0F245B"/>
<path d="M348.829 67.7231C343.519 66.6098 337.574 64.4476 331.358 61.4926C315.16 53.7928 308.978 57.9847 308.978 57.9847L291.651 65.8872C294.314 64.9478 297.001 64.3767 298.973 65.1389C306.863 68.187 316.875 76.794 328.14 76.9967C339.405 77.1995 348.829 67.7231 348.829 67.7231Z" fill="#2447B5"/>
<path d="M309.718 57.6238C310.23 57.4136 315.962 43.3845 319.206 39.3616C322.868 34.822 328.663 32.8064 332.198 33.0149C334.08 33.1261 338.125 33.4318 342.177 34.3547C352.028 36.5986 363.527 42.7838 365.419 46.8792C367.141 50.6088 364.484 69.1635 364.484 69.1635C364.484 69.1635 358.371 69.7238 348.829 67.7231C343.519 66.6098 337.574 64.4476 331.358 61.4926C318.197 55.2365 311.712 56.8055 309.718 57.6229V57.6238Z" fill="#4B6CF9"/>
<path d="M348.829 67.7231C348.829 67.7231 351.434 48.833 351.378 44.8867C351.322 40.9404 346.579 36.7881 342.177 34.3547C352.028 36.5986 363.527 42.7838 365.419 46.8792C367.141 50.6088 364.484 69.1635 364.484 69.1635C364.484 69.1635 358.371 69.7238 348.829 67.7231Z" fill="#4A65BC"/>
</g>
<defs>
<clipPath id="clip0_3_24">
<rect width="75" height="44" fill="white" transform="translate(291 33)"/>
</clipPath>
</defs>
</svg>
