<svg width="676" height="702" viewBox="0 0 676 702" fill="none" xmlns="http://www.w3.org/2000/svg">
<g clip-path="url(#clip0_3_65)">
<path d="M8.65102 347.887C11.1797 346.661 14.0004 346.377 15.973 347.139C17.7085 347.81 19.546 348.748 21.4776 349.808L21.4732 349.815C21.4732 349.815 14.119 351.835 10.9409 351.115C10.9409 351.115 6.335 349.009 8.65189 347.887H8.65102Z" fill="#0F245B"/>
<path d="M65.829 349.723C60.5188 348.61 54.574 346.448 48.3582 343.493C32.16 335.793 25.9781 339.985 25.9781 339.985L8.65112 347.887C11.3141 346.948 14.0005 346.377 15.9731 347.139C23.8626 350.187 33.8754 358.794 45.14 358.997C56.4045 359.199 65.829 349.723 65.829 349.723Z" fill="#2447B5"/>
<path d="M26.7183 339.624C27.2299 339.414 32.962 325.384 36.2064 321.362C39.8682 316.822 45.6631 314.806 49.1986 315.015C51.0805 315.126 55.125 315.432 59.1774 316.355C69.0281 318.599 80.5272 324.784 82.4187 328.879C84.1411 332.609 81.4843 351.163 81.4843 351.163C81.4843 351.163 75.3712 351.724 65.8291 349.723C60.5189 348.61 54.5741 346.448 48.3583 343.493C35.197 337.237 28.7118 338.805 26.7183 339.623V339.624Z" fill="#4B6CF9"/>
<path d="M65.8289 349.723C65.8289 349.723 68.4335 330.833 68.3777 326.887C68.3219 322.94 63.5792 318.788 59.1772 316.355C69.028 318.599 80.527 324.784 82.4185 328.879C84.1409 332.609 81.4841 351.163 81.4841 351.163C81.4841 351.163 75.3711 351.724 65.8289 349.723Z" fill="#4A65BC"/>
</g>
<g clip-path="url(#clip1_3_65)">
<path d="M561.651 349.887C564.18 348.661 567.001 348.377 568.973 349.139C570.709 349.81 572.546 350.748 574.478 351.808L574.473 351.815C574.473 351.815 567.119 353.835 563.941 353.115C563.941 353.115 559.335 351.009 561.652 349.887H561.651Z" fill="#0F245B"/>
<path d="M618.829 351.723C613.519 350.61 607.574 348.448 601.358 345.493C585.16 337.793 578.978 341.985 578.978 341.985L561.651 349.887C564.314 348.948 567.001 348.377 568.973 349.139C576.863 352.187 586.876 360.794 598.14 360.997C609.405 361.199 618.829 351.723 618.829 351.723Z" fill="#2447B5"/>
<path d="M579.718 341.624C580.23 341.414 585.962 327.384 589.206 323.362C592.868 318.822 598.663 316.806 602.199 317.015C604.08 317.126 608.125 317.432 612.177 318.355C622.028 320.599 633.527 326.784 635.419 330.879C637.141 334.609 634.484 353.163 634.484 353.163C634.484 353.163 628.371 353.724 618.829 351.723C613.519 350.61 607.574 348.448 601.358 345.493C588.197 339.237 581.712 340.805 579.718 341.623V341.624Z" fill="#4B6CF9"/>
<path d="M618.829 351.723C618.829 351.723 621.433 332.833 621.378 328.887C621.322 324.94 616.579 320.788 612.177 318.355C622.028 320.599 633.527 326.784 635.419 330.879C637.141 334.609 634.484 353.163 634.484 353.163C634.484 353.163 628.371 353.724 618.829 351.723Z" fill="#4A65BC"/>
</g>
<defs>
<clipPath id="clip0_3_65">
<rect width="75" height="44" fill="white" transform="translate(8 315)"/>
</clipPath>
<clipPath id="clip1_3_65">
<rect width="75" height="44" fill="white" transform="translate(561 317)"/>
</clipPath>
</defs>
</svg>
