<svg width="676" height="702" viewBox="0 0 676 702" fill="none" xmlns="http://www.w3.org/2000/svg">
<g clip-path="url(#clip0_3_36)">
<path d="M16.6511 349.887C19.1798 348.661 22.0006 348.377 23.9731 349.139C25.7086 349.81 27.5461 350.748 29.4777 351.808L29.4734 351.815C29.4734 351.815 22.1191 353.835 18.941 353.115C18.941 353.115 14.3351 351.009 16.652 349.887H16.6511Z" fill="#0F245B"/>
<path d="M73.829 351.723C68.5188 350.61 62.574 348.448 56.3582 345.493C40.16 337.793 33.9781 341.985 33.9781 341.985L16.6511 349.887C19.3141 348.948 22.0005 348.377 23.9731 349.139C31.8626 352.187 41.8754 360.794 53.14 360.997C64.4045 361.199 73.829 351.723 73.829 351.723Z" fill="#2447B5"/>
<path d="M34.7181 341.624C35.2298 341.414 40.9619 327.384 44.2062 323.362C47.8681 318.822 53.663 316.806 57.1984 317.015C59.0804 317.126 63.1249 317.432 67.1773 318.355C77.028 320.599 88.527 326.784 90.4186 330.879C92.141 334.609 89.4841 353.163 89.4841 353.163C89.4841 353.163 83.3711 353.724 73.829 351.723C68.5188 350.61 62.574 348.448 56.3582 345.493C43.1968 339.237 36.7116 340.805 34.7181 341.623V341.624Z" fill="#4B6CF9"/>
<path d="M73.8291 351.723C73.8291 351.723 76.4336 332.833 76.3778 328.887C76.322 324.94 71.5793 320.788 67.1774 318.355C77.0281 320.599 88.5271 326.784 90.4186 330.879C92.141 334.609 89.4842 353.163 89.4842 353.163C89.4842 353.163 83.3712 353.724 73.8291 351.723Z" fill="#4A65BC"/>
</g>
<defs>
<clipPath id="clip0_3_36">
<rect width="75" height="44" fill="white" transform="translate(16 317)"/>
</clipPath>
</defs>
</svg>
