<svg width="676" height="702" viewBox="0 0 676 702" fill="none" xmlns="http://www.w3.org/2000/svg">
<g clip-path="url(#clip0_3_48)">
<path d="M291.651 65.8871C294.18 64.6609 297 64.3766 298.973 65.1389C300.709 65.8096 302.546 66.7482 304.478 67.8079L304.473 67.8153C304.473 67.8153 297.119 69.835 293.941 69.1148C293.941 69.1148 289.335 67.0094 291.652 65.8871H291.651Z" fill="#0F245B"/>
<path d="M348.829 67.7231C343.519 66.6098 337.574 64.4476 331.358 61.4926C315.16 53.7928 308.978 57.9847 308.978 57.9847L291.651 65.8872C294.314 64.9478 297.001 64.3767 298.973 65.1389C306.863 68.187 316.875 76.794 328.14 76.9967C339.405 77.1995 348.829 67.7231 348.829 67.7231Z" fill="#2447B5"/>
<path d="M309.718 57.6238C310.23 57.4136 315.962 43.3845 319.206 39.3616C322.868 34.822 328.663 32.8064 332.199 33.0149C334.08 33.1261 338.125 33.4318 342.177 34.3547C352.028 36.5986 363.527 42.7838 365.419 46.8792C367.141 50.6088 364.484 69.1635 364.484 69.1635C364.484 69.1635 358.371 69.7238 348.829 67.7231C343.519 66.6098 337.574 64.4476 331.358 61.4926C318.197 55.2365 311.712 56.8055 309.718 57.6229V57.6238Z" fill="#4B6CF9"/>
<path d="M348.829 67.7231C348.829 67.7231 351.433 48.833 351.378 44.8867C351.322 40.9404 346.579 36.7881 342.177 34.3547C352.028 36.5986 363.527 42.7838 365.419 46.8792C367.141 50.6088 364.484 69.1635 364.484 69.1635C364.484 69.1635 358.371 69.7238 348.829 67.7231Z" fill="#4A65BC"/>
</g>
<g clip-path="url(#clip1_3_48)">
<path d="M561.651 349.887C564.18 348.661 567 348.377 568.973 349.139C570.709 349.81 572.546 350.748 574.478 351.808L574.473 351.815C574.473 351.815 567.119 353.835 563.941 353.115C563.941 353.115 559.335 351.009 561.652 349.887H561.651Z" fill="#0F245B"/>
<path d="M618.829 351.723C613.519 350.61 607.574 348.448 601.358 345.493C585.16 337.793 578.978 341.985 578.978 341.985L561.651 349.887C564.314 348.948 567.001 348.377 568.973 349.139C576.863 352.187 586.875 360.794 598.14 360.997C609.405 361.199 618.829 351.723 618.829 351.723Z" fill="#2447B5"/>
<path d="M579.718 341.624C580.23 341.414 585.962 327.384 589.206 323.362C592.868 318.822 598.663 316.806 602.199 317.015C604.08 317.126 608.125 317.432 612.177 318.355C622.028 320.599 633.527 326.784 635.419 330.879C637.141 334.609 634.484 353.163 634.484 353.163C634.484 353.163 628.371 353.724 618.829 351.723C613.519 350.61 607.574 348.448 601.358 345.493C588.197 339.237 581.712 340.805 579.718 341.623V341.624Z" fill="#4B6CF9"/>
<path d="M618.829 351.723C618.829 351.723 621.433 332.833 621.378 328.887C621.322 324.94 616.579 320.788 612.177 318.355C622.028 320.599 633.527 326.784 635.419 330.879C637.141 334.609 634.484 353.163 634.484 353.163C634.484 353.163 628.371 353.724 618.829 351.723Z" fill="#4A65BC"/>
</g>
<defs>
<clipPath id="clip0_3_48">
<rect width="75" height="44" fill="white" transform="translate(291 33)"/>
</clipPath>
<clipPath id="clip1_3_48">
<rect width="75" height="44" fill="white" transform="translate(561 317)"/>
</clipPath>
</defs>
</svg>
