<svg width="676" height="702" viewBox="0 0 676 702" fill="none" xmlns="http://www.w3.org/2000/svg">
<g clip-path="url(#clip0_3_17)">
<path d="M558.651 349.887C561.18 348.661 564.001 348.377 565.973 349.139C567.709 349.81 569.546 350.748 571.478 351.808L571.473 351.815C571.473 351.815 564.119 353.835 560.941 353.115C560.941 353.115 556.335 351.009 558.652 349.887H558.651Z" fill="#0F245B"/>
<path d="M615.829 351.723C610.519 350.61 604.574 348.448 598.358 345.493C582.16 337.793 575.978 341.985 575.978 341.985L558.651 349.887C561.314 348.948 564.001 348.377 565.973 349.139C573.863 352.187 583.875 360.794 595.14 360.997C606.405 361.199 615.829 351.723 615.829 351.723Z" fill="#2447B5"/>
<path d="M576.718 341.624C577.23 341.414 582.962 327.384 586.206 323.362C589.868 318.822 595.663 316.806 599.199 317.015C601.08 317.126 605.125 317.432 609.177 318.355C619.028 320.599 630.527 326.784 632.419 330.879C634.141 334.609 631.484 353.163 631.484 353.163C631.484 353.163 625.371 353.724 615.829 351.723C610.519 350.61 604.574 348.448 598.358 345.493C585.197 339.237 578.712 340.805 576.718 341.623V341.624Z" fill="#4B6CF9"/>
<path d="M615.829 351.723C615.829 351.723 618.434 332.833 618.378 328.887C618.322 324.94 613.579 320.788 609.177 318.355C619.028 320.599 630.527 326.784 632.419 330.879C634.141 334.609 631.484 353.163 631.484 353.163C631.484 353.163 625.371 353.724 615.829 351.723Z" fill="#4A65BC"/>
</g>
<defs>
<clipPath id="clip0_3_17">
<rect width="75" height="44" fill="white" transform="translate(558 317)"/>
</clipPath>
</defs>
</svg>
