<svg width="676" height="702" viewBox="0 0 676 702" fill="none" xmlns="http://www.w3.org/2000/svg">
<g clip-path="url(#clip0_3_104)">
<path d="M8.65126 347.887C11.18 346.661 14.0007 346.377 15.9733 347.139C17.7088 347.81 19.5462 348.748 21.4778 349.808L21.4735 349.815C21.4735 349.815 14.1192 351.835 10.9411 351.115C10.9411 351.115 6.33524 349.009 8.65213 347.887H8.65126Z" fill="#0F245B"/>
<path d="M65.8293 349.723C60.5191 348.61 54.5743 346.448 48.3584 343.493C32.1602 335.793 25.9784 339.985 25.9784 339.985L8.65137 347.887C11.3143 346.948 14.0008 346.377 15.9734 347.139C23.8628 350.187 33.8757 358.794 45.1402 358.997C56.4048 359.199 65.8293 349.723 65.8293 349.723Z" fill="#2447B5"/>
<path d="M26.7183 339.624C27.2299 339.414 32.962 325.384 36.2064 321.362C39.8682 316.822 45.6631 314.806 49.1986 315.015C51.0805 315.126 55.125 315.432 59.1774 316.355C69.0281 318.599 80.5272 324.784 82.4187 328.879C84.1411 332.609 81.4843 351.163 81.4843 351.163C81.4843 351.163 75.3712 351.724 65.8291 349.723C60.5189 348.61 54.5741 346.448 48.3583 343.493C35.197 337.237 28.7118 338.805 26.7183 339.623V339.624Z" fill="#4B6CF9"/>
<path d="M65.8289 349.723C65.8289 349.723 68.4335 330.833 68.3777 326.887C68.3219 322.94 63.5792 318.788 59.1772 316.355C69.028 318.599 80.527 324.784 82.4185 328.879C84.1409 332.609 81.4841 351.163 81.4841 351.163C81.4841 351.163 75.3711 351.724 65.8289 349.723Z" fill="#4A65BC"/>
</g>
<g clip-path="url(#clip1_3_104)">
<path d="M561.651 349.887C564.18 348.661 567.001 348.377 568.973 349.139C570.709 349.81 572.546 350.748 574.478 351.808L574.473 351.815C574.473 351.815 567.119 353.835 563.941 353.115C563.941 353.115 559.335 351.009 561.652 349.887H561.651Z" fill="#0F245B"/>
<path d="M618.829 351.723C613.519 350.61 607.574 348.448 601.358 345.493C585.16 337.793 578.978 341.985 578.978 341.985L561.651 349.887C564.314 348.948 567.001 348.377 568.973 349.139C576.863 352.187 586.876 360.794 598.14 360.997C609.405 361.199 618.829 351.723 618.829 351.723Z" fill="#2447B5"/>
<path d="M579.718 341.624C580.23 341.414 585.962 327.384 589.206 323.362C592.868 318.822 598.663 316.806 602.199 317.015C604.08 317.126 608.125 317.432 612.177 318.355C622.028 320.599 633.527 326.784 635.419 330.879C637.141 334.609 634.484 353.163 634.484 353.163C634.484 353.163 628.371 353.724 618.829 351.723C613.519 350.61 607.574 348.448 601.358 345.493C588.197 339.237 581.712 340.805 579.718 341.623V341.624Z" fill="#4B6CF9"/>
<path d="M618.829 351.723C618.829 351.723 621.433 332.833 621.378 328.887C621.322 324.94 616.579 320.788 612.177 318.355C622.028 320.599 633.527 326.784 635.419 330.879C637.141 334.609 634.484 353.163 634.484 353.163C634.484 353.163 628.371 353.724 618.829 351.723Z" fill="#4A65BC"/>
</g>
<g clip-path="url(#clip2_3_104)">
<path d="M294.651 65.8871C297.18 64.6609 300.001 64.3766 301.973 65.1389C303.709 65.8096 305.546 66.7482 307.478 67.8079L307.473 67.8153C307.473 67.8153 300.119 69.835 296.941 69.1148C296.941 69.1148 292.335 67.0094 294.652 65.8871H294.651Z" fill="#0F245B"/>
<path d="M351.829 67.7231C346.519 66.6098 340.574 64.4476 334.358 61.4926C318.16 53.7928 311.978 57.9847 311.978 57.9847L294.651 65.8872C297.314 64.9478 300.001 64.3767 301.973 65.1389C309.863 68.187 319.876 76.794 331.14 76.9967C342.405 77.1995 351.829 67.7231 351.829 67.7231Z" fill="#2447B5"/>
<path d="M312.718 57.6238C313.23 57.4136 318.962 43.3845 322.206 39.3616C325.868 34.822 331.663 32.8064 335.199 33.0149C337.08 33.1261 341.125 33.4318 345.177 34.3547C355.028 36.5986 366.527 42.7838 368.419 46.8792C370.141 50.6088 367.484 69.1635 367.484 69.1635C367.484 69.1635 361.371 69.7238 351.829 67.7231C346.519 66.6098 340.574 64.4476 334.358 61.4926C321.197 55.2365 314.712 56.8055 312.718 57.6229V57.6238Z" fill="#4B6CF9"/>
<path d="M351.829 67.7231C351.829 67.7231 354.433 48.833 354.378 44.8867C354.322 40.9404 349.579 36.7881 345.177 34.3547C355.028 36.5986 366.527 42.7838 368.419 46.8792C370.141 50.6088 367.484 69.1635 367.484 69.1635C367.484 69.1635 361.371 69.7238 351.829 67.7231Z" fill="#4A65BC"/>
</g>
<defs>
<clipPath id="clip0_3_104">
<rect width="75" height="44" fill="white" transform="translate(8 315)"/>
</clipPath>
<clipPath id="clip1_3_104">
<rect width="75" height="44" fill="white" transform="translate(561 317)"/>
</clipPath>
<clipPath id="clip2_3_104">
<rect width="75" height="44" fill="white" transform="translate(294 33)"/>
</clipPath>
</defs>
</svg>
