<svg width="75" height="44" viewBox="0 0 75 44" fill="none" xmlns="http://www.w3.org/2000/svg">
<g clip-path="url(#clip0_18_61)">
<path d="M0.651138 32.8871C3.17985 31.661 6.00056 31.3767 7.97314 32.1389C9.70863 32.8097 11.5461 33.7482 13.4777 34.8079L13.4734 34.8153C13.4734 34.8153 6.11911 36.835 2.94101 36.1148C2.94101 36.1148 -1.66488 34.0094 0.65201 32.8871H0.651138Z" fill="#0F245B"/>
<path d="M57.829 34.7231C52.5188 33.6098 46.574 31.4475 40.3582 28.4925C24.16 20.7928 17.9781 24.9846 17.9781 24.9846L0.651123 32.8871C3.31407 31.9477 6.00055 31.3767 7.97313 32.1389C15.8626 35.187 25.8754 43.794 37.14 43.9967C48.4045 44.1994 57.829 34.7231 57.829 34.7231Z" fill="#2447B5"/>
<path d="M18.7182 24.6237C19.2299 24.4136 24.962 10.3845 28.2063 6.36153C31.8682 1.82194 37.663 -0.19364 41.1985 0.0148398C43.0804 0.126084 47.125 0.4318 51.1773 1.35472C61.0281 3.59855 72.5271 9.78374 74.4186 13.8792C76.141 17.6087 73.4842 36.1635 73.4842 36.1635C73.4842 36.1635 67.3712 36.7238 57.829 34.7231C52.5188 33.6098 46.5741 31.4475 40.3582 28.4926C27.1969 22.2365 20.7117 23.8055 18.7182 24.6229V24.6237Z" fill="#4B6CF9"/>
<path d="M57.829 34.7231C57.829 34.7231 60.4335 15.8329 60.3778 11.8867C60.322 7.94037 55.5792 3.78807 51.1773 1.35471C61.028 3.59854 72.5271 9.78373 74.4186 13.8792C76.141 17.6087 73.4841 36.1635 73.4841 36.1635C73.4841 36.1635 67.3711 36.7238 57.829 34.7231Z" fill="#4A65BC"/>
</g>
<defs>
<clipPath id="clip0_18_61">
<rect width="75" height="44" fill="white"/>
</clipPath>
</defs>
</svg>
